<?xml version="1.0" encoding="UTF-8" standalone="no"?>


<svg height="1024.0pt" stroke-miterlimit="10" style="fill-rule:nonzero;clip-rule:evenodd;stroke-linecap:round;stroke-linejoin:round;" version="1.1" viewBox="0 0 1024 1024" width="1024.0pt" xml:space="preserve" xmlns="http://www.w3.org/2000/svg" xmlns:xlink="http://www.w3.org/1999/xlink">
<defs></defs>
<g id="Katman-1"></g>
<g id="Katman-2">
<g opacity="1">
<g opacity="1">
<path d="M697.437 130.094C661.999 130.094 629.682 135.85 600.469 147.344C571.256 158.837 546.103 174.396 525.031 194.031C503.96 213.666 487.577 236.66 475.844 263C464.111 289.34 458.219 317.579 458.219 347.75L458.219 535.937C458.219 544.079 460.993 550.523 466.5 555.312C472.007 560.102 478.827 562.5 486.969 562.5L760.656 562.5L760.656 674.594C757.123 688.701 754.196 692.221 750.281 697.781C746.367 703.342 740.087 708.495 733.031 714.219C725.976 719.942 720.322 723.223 713.437 726.812C706.553 730.401 698.427 733.055 690.031 735.75C681.635 738.445 675.588 739.761 665.625 741.469C655.662 743.176 644.566 744.26 631.5 744.219C618.434 744.177 602.195 742.432 588.406 740.094C574.617 737.756 554.696 732.734 543.937 729.031C533.179 725.328 519.388 719.059 501.594 711.937C483.8 704.816 466.132 733.14 477.625 759.719C489.119 786.298 505.293 809.532 526.125 829.406C546.957 849.281 571.839 864.84 600.812 876.094C629.786 887.348 661.999 893 697.437 893C731.918 893 764.507 887.348 795.156 876.094C825.806 864.84 852.367 849.281 874.875 829.406C897.383 809.532 915.237 786.297 928.406 759.719C941.576 733.14 948.156 704.764 948.156 674.594L948.156 347.75C948.156 317.579 941.576 289.34 928.406 263C915.236 236.66 897.384 213.666 874.875 194.031C852.367 174.396 825.806 158.837 795.156 147.344C764.506 135.85 731.919 130.094 697.437 130.094ZM743.719 281.562C753.776 281.562 762.89 283.346 771.031 286.937C779.173 290.529 786.233 295.222 792.219 300.969C798.205 306.716 802.867 313.4 806.219 321.062C809.571 328.725 811.25 336.64 811.25 344.781L811.25 425.25L678.375 425.25L678.375 345.5C678.375 328.738 684.236 313.899 695.969 300.969C707.702 288.038 723.605 281.563 743.719 281.562Z" fill="#ea580c" fill-rule="nonzero" opacity="1" stroke="none"></path>
</g>
<g opacity="1">
<path d="M335.654 611.102C326.16 611.153 316.662 611.492 307.177 611.758C287.134 612.32 267.092 613.051 247.055 613.772C189.742 615.837 132.444 618.259 75.1426 620.603C69.5745 620.598 65.0556 625.109 65.0505 630.677C65.0454 636.245 69.5558 640.764 75.1239 640.769C132.773 643.232 190.416 645.765 248.076 647.947C268.112 648.705 288.147 649.466 308.189 650.065C320.484 650.432 332.808 650.919 345.109 650.702C356.028 650.712 364.889 641.868 364.899 630.949C364.909 620.029 356.057 611.168 345.137 611.158C341.974 611.096 338.818 611.085 335.654 611.102Z" fill="#ea580c" stroke="none"></path>
</g>
<g opacity="1">
<path d="M111.415 437.663C107.488 437.752 103.807 440.145 102.268 444.027C100.215 449.203 102.748 455.064 107.924 457.116C160.164 480.424 212.371 503.8 264.724 526.85C282.894 534.85 301.067 542.851 319.301 550.705C330.585 555.565 341.84 560.548 353.346 564.864C363.497 568.889 374.996 563.923 379.021 553.772C383.047 543.621 378.08 532.131 367.929 528.105C356.215 523.205 344.208 518.996 332.276 514.662C314 508.025 295.664 501.54 277.337 495.05C223.414 475.956 169.373 457.199 115.357 438.37C114.063 437.857 112.725 437.634 111.415 437.663Z" fill="#ea580c" stroke="none"></path>
</g>
<g opacity="1">
<path d="M361.078 695.359C358.51 695.301 355.884 695.742 353.346 696.748C341.579 701.162 330.075 706.268 318.534 711.239C300.245 719.116 282.016 727.146 263.791 735.169C211.659 758.119 159.673 781.401 107.655 804.607C102.479 806.659 99.9498 812.515 102.002 817.691C104.055 822.867 109.911 825.406 115.087 823.353C169.201 804.487 223.34 785.689 277.362 766.557C296.133 759.909 314.909 753.265 333.627 746.466C345.109 742.296 356.653 738.222 367.925 733.506C378.076 729.481 383.044 717.992 379.019 707.842C376 700.229 368.781 695.533 361.078 695.359Z" fill="#ea580c" stroke="none"></path>
</g>
</g>
</g>
</svg>